<svg width="40" height="40" viewBox="0 0 40 40" fill="none" xmlns="http://www.w3.org/2000/svg">
<g clip-path="url(#clip0_1446_330)">
<path d="M20 39.8124C14.7454 39.8124 9.7061 37.725 5.99056 34.0095C2.27502 30.2939 0.187611 25.2546 0.187611 20V20C0.187611 14.7454 2.27502 9.70609 5.99056 5.99055C9.7061 2.27501 14.7454 0.187653 20 0.187653V0.187653C25.2546 0.187653 30.2939 2.27501 34.0095 5.99055C37.725 9.70609 39.8124 14.7454 39.8124 20V20C39.8124 25.2546 37.725 30.2939 34.0095 34.0095C30.2939 37.725 25.2546 39.8124 20 39.8124V39.8124Z" stroke="#1F3965" stroke-width="0.43" stroke-miterlimit="10"/>
<path fill-rule="evenodd" clip-rule="evenodd" d="M28.5032 23.6588C28.0256 23.4285 25.7484 22.3113 25.322 22.1578C24.8955 22.0043 24.58 21.9275 24.273 22.388C23.9659 22.8486 23.0618 23.8891 22.7974 24.1961C22.5331 24.5032 22.2516 24.5373 21.7825 24.307C20.4094 23.7682 19.142 22.9915 18.0384 22.0128C17.0291 21.0851 16.1664 20.0096 15.4798 18.823C15.2154 18.3625 15.4798 18.1151 15.6845 17.8849C15.8892 17.6546 16.145 17.339 16.3838 17.0746C16.4521 16.9979 16.5032 16.9211 16.5544 16.8529C16.6646 16.677 16.7643 16.4947 16.8529 16.307C16.9201 16.1826 16.9552 16.0434 16.9552 15.9019C16.9552 15.7605 16.9201 15.6213 16.8529 15.4968C16.742 15.2665 15.8124 12.9894 15.4201 12.0853C15.0278 11.1813 14.6439 11.3177 14.371 11.3177C14.0981 11.3177 13.791 11.3177 13.5181 11.3177C13.2823 11.3217 13.0499 11.3745 12.8356 11.4729C12.6213 11.5712 12.4297 11.713 12.273 11.8891C11.7483 12.3849 11.3324 12.9844 11.052 13.6495C10.7715 14.3147 10.6326 15.0309 10.6439 15.7527C10.6546 16.284 10.7349 16.8115 10.8828 17.3219C11.2455 18.4772 11.8085 19.5598 12.5459 20.5202C12.7762 20.8273 15.7612 25.6375 20.4862 27.4968C25.2111 29.3561 25.2282 28.7249 26.0811 28.6397C26.9339 28.5544 28.8358 27.5309 29.2111 26.4478C29.5159 25.76 29.6137 24.9983 29.4926 24.2558C29.2708 24.0085 28.9638 23.8891 28.5032 23.6588Z" fill="#1F3965"/>
</g>
<defs>
<clipPath id="clip0_1446_330">
<rect width="40" height="40" fill="white"/>
</clipPath>
</defs>
</svg>
