<svg width="50" height="40" viewBox="0 0 50 40" fill="none" xmlns="http://www.w3.org/2000/svg">
<path d="M50 1.37411e-06L50 13.3823C50 18.3823 49.1045 22.9902 47.3134 27.2059C45.5224 31.4216 42.4876 35.6863 38.209 40L30.4478 33.9706C32.9353 31.5196 34.8259 29.2157 36.1194 27.0588C37.4129 24.902 38.2587 22.6961 38.6567 20.4412L29.1045 20.4412V1.37411e-06H50ZM20.8955 1.37411e-06V13.3823C20.8955 18.3823 20 22.9902 18.209 27.2059C16.4179 31.4216 13.3831 35.6863 9.10448 40L1.34328 33.9706C3.83084 31.5196 5.72139 29.2157 7.01493 27.0588C8.30846 24.902 9.15423 22.6961 9.55224 20.4412L-1.66907e-06 20.4412L-1.66907e-06 1.37411e-06H20.8955Z" fill="#FEBB2F"/>
</svg>
